General
Complete name                            : Russian boy Hen and Martin (full).flv
Format                                   : Flash Video
File size                                : 78.7 MiB
Duration                                 : 21mn 56s
Overall bit rate                         : 502 Kbps
Tagged date                              : UTC 2012-08-26 10:18:45
Writing application                      : Lavf54.6.100
Tagging application                      : flvtool++Motion project, dweatherford)

Video
Format                                   : AVC
Format/Info                              : Advanced Video Codec
Format profile                           : High@L3.0
Format settings, CABAC                   : Yes
Format settings, ReFrames                : 5 frames
Codec ID                                 : 7
Duration                                 : 21mn 56s
Bit rate                                 : 400 Kbps
Width                                    : 646 pixels
Height                                   : 364 pixels
Display aspect ratio                     : 16:9
Frame rate mode                          : Constant
Frame rate                               : 25.000 fps
Color space                              : YUV
Chroma subsampling                       : 4:2:0
Bit depth                                : 8 bits
Scan type                                : Progressive
Bits/(Pixel*Frame)                       : 0.068
Stream size                              : 62.2 MiB (79%)
Writing library                          : x264 core 124
Encoding settings                        : cabac=1 / ref=5 / deblock=1:-1:-1 / analyse=0x3:0x113 / me=umh / subme=8 / psy=1 / psy_rd=1.00:0.15 / mixed_ref=1 / me_range=16 / chroma_me=1 / trellis=1 / 8x8dct=1 / cqm=0 / deadzone=21,11 / fast_pskip=1 / chroma_qp_offset=-3 / threads=4 / sliced_threads=0 / nr=0 / decimate=1 / interlaced=0 / bluray_compat=0 / constrained_intra=0 / bframes=3 / b_pyramid=2 / b_adapt=2 / b_bias=0 / direct=3 / weightb=1 / open_gop=0 / weightp=2 / keyint=25 / keyint_min=2 / scenecut=40 / intra_refresh=0 / rc_lookahead=25 / rc=abr / mbtree=1 / bitrate=400 / ratetol=1.0 / qcomp=0.60 / qpmin=2 / qpmax=50 / qpstep=4 / ip_ratio=1.40 / aq=1:1.00

Audio
Format                                   : AAC
Format/Info                              : Advanced Audio Codec
Format profile                           : LC
Codec ID                                 : 10
Duration                                 : 21mn 56s
Bit rate                                 : 93.8 Kbps
Channel(s)                               : 2 channels
Channel positions                        : Front: L R
Sampling rate                            : 44.1 KHz
Compression mode                         : Lossy
Delay relative to video                  : 57ms
Stream size                              : 15.1 MiB (19%)


** GREEk **
Kali proboli kai kan te seed gia oso to dunaton perissotero!! ;)

Breite me edw: https://thepiratebay.se/user/GaySubsGR/

FULL SCREENSHOT: http://bayimg.com/NaLLCAaeF